<svg width="24.000000" height="24.000000" viewBox="0 0 24 24" fill="none" xmlns="http://www.w3.org/2000/svg" xmlns:xlink="http://www.w3.org/1999/xlink">
	<desc>
	</desc>
	<defs>
		<clipPath id="clip101_300">
			<rect id="icon/clean" rx="-0.500000" width="23.000000" height="23.000000" transform="translate(0.500000 0.500000)" fill="white" fill-opacity="0"/>
		</clipPath>
	</defs>
	<g clip-path="url(#clip101_300)">
		<path id="Vector 4" d="M7.84 11.99L14.08 15.59M12.74 10.71C12.4 10.52 12.07 10.4 11.75 10.33C10.03 9.99 8.48 11.21 7.84 11.99L2.8 15.92L5.4 17.42L8 18.92L10.59 20.42L13.19 21.92L14.08 15.59C14.5 14.46 14.81 11.91 12.74 10.71ZM11.75 10.33L14.5 5.57C14.7 5.22 14.96 4.47 16 5.07C17.03 5.67 16.65 6.13 16.36 6.64L13.6 11.42" stroke="#000000" stroke-opacity="1.000000" stroke-width="1.500000" stroke-linecap="round"/>
		<path id="Vector 5" d="M5.65 16.99L7.76 15.33" stroke="#000000" stroke-opacity="1.000000" stroke-width="1.500000" stroke-linecap="round"/>
		<path id="Vector 6" d="M10.84 19.99L11.23 17.33" stroke="#000000" stroke-opacity="1.000000" stroke-width="1.500000" stroke-linecap="round"/>
		<path id="Vector 7" d="M8.25 18.49L9 17.19" stroke="#000000" stroke-opacity="1.000000" stroke-width="1.500000" stroke-linecap="round"/>
	</g>
</svg>
